<svg xmlns="http://www.w3.org/2000/svg" width="124" height="124" viewBox="0 0 124 124">
  <g fill="none" fill-rule="evenodd" transform="translate(5 17)">
    <path fill="#FFF" fill-rule="nonzero" stroke="#7A589E" stroke-width="2" d="M112.453233,79.5640837 L105,60.1856777 L105,5 C105,2.790861 103.209139,1 101,1 L13,1 C10.790861,1 9,2.790861 9,5 L9,60.1856777 L1.54676691,79.5640837 C1.370528,80.0223048 1.28014934,80.5090552 1.28014934,81 C1.28014934,83.209139 3.07101034,85 5.28014934,85 L108.719851,85 C109.210795,85 109.697546,84.9096213 110.155767,84.7333824 C112.217657,83.9403477 113.246268,81.6259739 112.453233,79.5640837 Z"/>
    <polyline stroke="#7A589E" stroke-linecap="round" stroke-linejoin="round" stroke-width="2" points="19 17 22.237 20.237 19 23.475"/>
    <path stroke="#CEC2DB" stroke-linecap="round" stroke-linejoin="round" stroke-width="2" d="M25.2727273,23.997375 L30.7272727,23.997375"/>
    <circle cx="14.5" cy="5.5" r="1.5" fill="#CEC2DB" fill-rule="nonzero"/>
    <circle cx="19.5" cy="5.5" r="1.5" fill="#CEC2DB" fill-rule="nonzero"/>
    <circle cx="24.5" cy="5.5" r="1.5" fill="#CEC2DB" fill-rule="nonzero"/>
    <path stroke="#CEC2DB" stroke-linecap="round" stroke-linejoin="round" stroke-width="2" d="M12.9888889 58.5L100.832449 58.5M29 5.5L100.832449 5.5M6.14444444 80.5L107.806093 80.5M14.0444444 63.5L17.9924696 63.5M23.0493827 63.5L26.9974079 63.5M32.054321 63.5L36.0023462 63.5M41.0592593 63.5L45.0072844 63.5M50.0641975 63.5L54.0122227 63.5M59.0691358 63.5L63.017161 63.5M68.0740741 63.5L72.0220992 63.5M77.0790123 63.5L81.0270375 63.5M86.0839506 63.5L90.0319758 63.5M95.0888889 63.5L99.0369141 63.5M12.0444444 69.5L15.9924696 69.5M21.6 69.5L25.5480252 69.5M31.1555556 69.5L35.1035807 69.5M40.7111111 69.5L44.6591363 69.5M50.2666667 69.5L54.2146918 69.5M59.8222222 69.5L63.7702474 69.5M69.3777778 69.5L73.325803 69.5M78.9333333 69.5L82.8813585 69.5M88.4888889 69.5L92.4369141 69.5M98.0444444 69.5L101.99247 69.5M9.04444444 75.5L12.9924696 75.5M18.2444444 75.5L22.1924696 75.5M27.4444444 75.5L31.3924696 75.5M36.6444444 75.5L40.5924696 75.5M45.8444444 75.5L49.7924696 75.5M55.0444444 75.5L58.9924696 75.5M64.2444444 75.5L68.1924696 75.5M73.4444444 75.5L77.3924696 75.5M82.6444444 75.5L86.5924696 75.5M91.8444444 75.5L95.7924696 75.5M101.044444 75.5L104.99247 75.5"/>
    <path stroke="#F1ECF3" stroke-linecap="round" stroke-linejoin="round" stroke-width="2" d="M62 12.2192691L78.5157859 12.2192691C79.8828643 12.2192691 80.9913063 13.3156146 80.9913063 14.6677741 80.9913063 16.0199336 79.8828643 17.1162791 78.5157859 17.1162791L74.3406543 17.1162791C72.9735758 17.1162791 71.8651338 18.2126246 71.8651338 19.5647841L71.8651338 20.551495C71.8651338 21.9036545 72.9735758 23 74.3406543 23L97.5244795 23C98.891558 23 100 21.9036545 100 20.551495L100 19.820598C100 18.4684385 98.891558 17.372093 97.5244795 17.372093L90.3761153 17.372093C89.0090368 17.372093 87.9005948 16.2757475 87.9005948 14.923588L87.9005948 14.448505C87.9005948 13.0963455 89.0090368 12 90.3761153 12L99.7413635 12M81 29L99 29M90 35L99 35"/>
    <path stroke="#CEC2DB" stroke-linecap="round" stroke-linejoin="round" stroke-width="2" d="M111.172852,89.5 L5.6171875,89.5" transform="matrix(-1 0 0 1 117 0)"/>
  </g>
</svg>
