<svg id="Layer_1" xmlns="http://www.w3.org/2000/svg" viewBox="0 0 23 23"><style>.st0{fill:#876aaa}.st1,.st2{fill:none;stroke:#876aaa;stroke-width:2;stroke-linecap:round;stroke-linejoin:round;stroke-miterlimit:10}.st2{stroke:#866aaa;stroke-width:1.2}</style><path class="st0" d="M4.1 8c-.6-.2-1.2-.7-1.6-1.2-.1.2-.2.4-.3.7-.9 2.1-1.1 4.4-.5 6.6.1.4.5.7 1 .7H3c.5-.1.9-.7.7-1.2-.6-1.8-.4-3.7.3-5.3 0-.1.1-.2.1-.3zM18.6 4.4C15.8 1.7 11.8.8 8.2 2c.5.5.8 1.1.9 1.8 2.9-.8 5.9-.1 8.1 2 .4.4 1 .4 1.4 0 .4-.4.4-1 0-1.4zM18.8 15.1c.7.1 1.3.5 1.7 1 1.2-2.2 1.5-4.7.8-7.2-.1-.5-.7-.8-1.2-.7-.5.1-.9.7-.7 1.2.5 2 .3 4-.6 5.7zM13.8 19.2c-2.7.8-5.8.1-8-2-.4-.4-1-.4-1.4 0-.4.4-.4 1 0 1.4 2 1.9 4.6 2.9 7.1 2.9 1.1 0 2.2-.2 3.2-.5-.5-.4-.9-1.1-.9-1.8z"/><path class="st1" d="M8.6 16.9l-3.5 1-.5 3.6m13.8-20l-.5 3.6-3.5 1"/><g><circle class="st2" cx="5.5" cy="4.8" r="3.6"/><path class="st2" d="M3.9 4.9l1 1 2.2-2.2"/><circle class="st2" cx="17.4" cy="18.4" r="3.6"/><path class="st2" d="M16.2 17.2l2.4 2.4M18.6 17.2l-2.4 2.4"/></g></svg>