<?xml version="1.0" encoding="utf-8"?>
<!-- Generator: Adobe Illustrator 21.0.1, SVG Export Plug-In . SVG Version: 6.00 Build 0)  -->
<svg version="1.1" id="Layer_1" xmlns="http://www.w3.org/2000/svg" xmlns:xlink="http://www.w3.org/1999/xlink" x="0px" y="0px"
	 viewBox="0 0 23 23" style="enable-background:new 0 0 23 23;" xml:space="preserve">
<style type="text/css">
	.st0{fill:none;stroke:#876AAA;stroke-width:2;stroke-linecap:round;stroke-linejoin:round;stroke-miterlimit:10;}
	.st1{fill:none;stroke:#876AAA;stroke-linecap:round;stroke-linejoin:round;}
	.st2{fill:#876AAA;}
</style>
<g>
	<path class="st0" d="M3.7,5.8l6.7-3.9c0.7-0.4,1.5-0.4,2.1,0l6.7,3.9c0.7,0.4,1.1,1.1,1.1,1.8v7.7c0,0.8-0.4,1.5-1.1,1.8l-6.7,3.9
		c-0.7,0.4-1.5,0.4-2.1,0l-6.7-3.9c-0.7-0.4-1.1-1.1-1.1-1.8V7.6C2.7,6.9,3.1,6.2,3.7,5.8z"/>
	<g>
		<g>
			<line class="st1" x1="11.5" y1="11.5" x2="13.1" y2="7.4"/>
			<g>
				<ellipse transform="matrix(0.3645 -0.9312 0.9312 0.3645 1.4201 16.9146)" class="st2" cx="13.1" cy="7.4" rx="1.1" ry="1.1"/>
			</g>
		</g>
	</g>
	<g>
		<g>
			<line class="st1" x1="11.5" y1="11.5" x2="11" y2="17.3"/>
			<g>
				
					<ellipse transform="matrix(8.588475e-02 -0.9963 0.9963 8.588475e-02 -7.088 26.7039)" class="st2" cx="11" cy="17.2" rx="1.1" ry="1.1"/>
			</g>
		</g>
	</g>
	<g>
		<g>
			<line class="st1" x1="11.5" y1="11.5" x2="7.7" y2="13.5"/>
			<g>
				<ellipse transform="matrix(0.8906 -0.4549 0.4549 0.8906 -5.2576 4.9967)" class="st2" cx="7.8" cy="13.4" rx="1.1" ry="1.1"/>
			</g>
		</g>
	</g>
	<g>
		<g>
			<line class="st1" x1="11.5" y1="11.5" x2="16.7" y2="8.6"/>
			<g>
				<ellipse transform="matrix(0.8739 -0.4861 0.4861 0.8739 -2.0882 9.2011)" class="st2" cx="16.7" cy="8.6" rx="1.1" ry="1.1"/>
			</g>
		</g>
	</g>
	<g>
		<g>
			<line class="st1" x1="11.5" y1="11.4" x2="6.4" y2="8.5"/>
			<g>
				<ellipse transform="matrix(0.4907 -0.8713 0.8713 0.4907 -4.1411 9.9288)" class="st2" cx="6.4" cy="8.5" rx="1.1" ry="1.1"/>
			</g>
		</g>
	</g>
	<g>
		<g>
			<line class="st1" x1="11.5" y1="11.5" x2="16.1" y2="12.3"/>
			<g>
				<ellipse transform="matrix(0.176 -0.9844 0.9844 0.176 1.0865 25.9465)" class="st2" cx="16" cy="12.3" rx="1.1" ry="1.1"/>
			</g>
		</g>
	</g>
</g>
</svg>
