<?xml version="1.0" encoding="utf-8"?>
<!-- Generator: Adobe Illustrator 21.0.0, SVG Export Plug-In . SVG Version: 6.00 Build 0)  -->
<svg version="1.1" id="Layer_1" xmlns="http://www.w3.org/2000/svg" xmlns:xlink="http://www.w3.org/1999/xlink" x="0px" y="0px"
	 viewBox="0 0 23 23" style="enable-background:new 0 0 23 23;" xml:space="preserve">
<style type="text/css">
	.st0{fill:none;stroke:#876AAA;stroke-width:2;stroke-linecap:round;stroke-linejoin:round;stroke-miterlimit:10;}
	.st1{fill:none;stroke:#876AAA;stroke-width:1.5;stroke-linecap:round;stroke-linejoin:round;stroke-miterlimit:10;}
</style>
<g>
	<path class="st0" d="M3.9,5.5l6.1-3.5c0.9-0.5,2-0.5,2.9,0l6.1,3.5C19.9,6,20.5,6.9,20.5,8v7c0,1-0.6,2-1.4,2.5l-6.1,3.5
		c-0.9,0.5-2,0.5-2.9,0l-6.1-3.5C3.1,17,2.5,16.1,2.5,15V8C2.5,6.9,3.1,6,3.9,5.5z"/>
	<g>
		<polyline class="st1" points="2.5,13.4 7.8,16.2 11.5,11.5 13.8,14.3 16.4,14.3 20.5,10.3 		"/>
		<polyline class="st1" points="2.5,8.6 7.7,11.2 11.2,7.1 13.5,9.6 16,6.4 19.8,6.1 		"/>
	</g>
</g>
</svg>
