<svg xmlns="http://www.w3.org/2000/svg" width="164" height="30" viewBox="0 0 164 30">
  <g fill="none" fill-rule="evenodd">
    <path fill="#79589F" fill-rule="nonzero" d="M19.8948678 11.5071151L16.1761214 11.5071151C15.748565 9.07103792 13.8096464 7.66905062 11.3337964 7.66905062 8.00283371 7.66905062 5.65624504 10.2244459 5.65624504 14.8181915 5.65624504 19.4914825 8.02272006 21.9673324 11.3238533 21.9673324 13.7599305 21.9673324 15.7087923 20.6250042 16.1761214 18.2386428L19.8948678 18.2585292C19.328107 22.1463095 16.1164623 25.2784088 11.2741374 25.2784088 5.90482435 25.2784088 1.94744176 21.3906284 1.94744176 14.8181915 1.94744176 8.23581144 5.95454021 4.35797423 11.2741374 4.35797423 15.7883377 4.35797423 19.268448 6.98297173 19.8948678 11.5071151zM29.7883442 25.2982952C25.3139166 25.2982952 22.4701693 22.1463095 22.4701693 17.4233027 22.4701693 12.6903526 25.3139166 9.52842385 29.7883442 9.52842385 34.2627717 9.52842385 37.106519 12.6903526 37.106519 17.4233027 37.106519 22.1463095 34.2627717 25.2982952 29.7883442 25.2982952zM29.8082305 22.4147752C32.2443077 22.4147752 33.4573747 20.2073909 33.4573747 17.4133595 33.4573747 14.6193281 32.2443077 12.3821143 29.8082305 12.3821143 27.3323806 12.3821143 26.1193136 14.6193281 26.1193136 17.4133595 26.1193136 20.2073909 27.3323806 22.4147752 29.8082305 22.4147752zM45.8167542 25.2684657C42.2173258 25.2684657 39.5227261 22.4147752 39.5227261 17.38353 39.5227261 12.2926258 42.2968712 9.52842385 45.8266974 9.52842385 48.5212971 9.52842385 49.6448755 11.1491609 50.19175 12.2528531L50.3408976 12.2528531 50.3408976 4.63638306 53.9502692 4.63638306 53.9502692 25 50.4104998 25 50.4104998 22.5937523 50.19175 22.5937523C49.6249892 23.7073876 48.4417517 25.2684657 45.8167542 25.2684657zM46.8210146 22.3153435C49.1178874 22.3153435 50.4104998 20.326709 50.4104998 17.3636436 50.4104998 14.4005783 49.1377738 12.481546 46.8210146 12.481546 44.4247101 12.481546 43.1917567 14.5198964 43.1917567 17.3636436 43.1917567 20.2272773 44.4445964 22.3153435 46.8210146 22.3153435zM64.5596509 25.2982952C59.9559621 25.2982952 57.1420443 22.2457413 57.1420443 17.4531322 57.1420443 12.7400685 59.9957348 9.52842385 64.3707306 9.52842385 68.1292497 9.52842385 71.3508376 11.8849557 71.3508376 17.2443256L71.3508376 18.3480177 60.7116432 18.3480177C60.7414727 20.963072 62.2826644 22.4943206 64.6093667 22.4943206 66.1605016 22.4943206 67.3536823 21.8181849 67.8408977 20.5255724L71.20169 20.903413C70.565327 23.55824 68.1193066 25.2982952 64.5596509 25.2982952zM60.7215864 15.9218837L67.9005568 15.9218837C67.8806704 13.8437606 66.4886263 12.3323984 64.4204465 12.3323984 62.2727212 12.3323984 60.8309613 13.9730219 60.7215864 15.9218837zM87.6605108 25L90.2059629 9.72728729 93.8053913 9.72728729 91.2599392 25 87.6605108 25zM92.5326653 7.53978938C91.3892004 7.53978938 90.5142013 6.66479021 90.6036898 5.5909276 90.7031215 4.50712182 91.707382 3.63212265 92.8607899 3.63212265 94.0042548 3.63212265 94.8593676 4.50712182 94.769879 5.5909276 94.6903337 6.66479021 93.6761301 7.53978938 92.5326653 7.53978938zM108.889191 13.7642153L105.578114 14.1221695C105.468739 13.0980227 104.792604 12.2130804 103.18181 12.2130804 101.620732 12.2130804 100.278403 12.998591 100.119313 14.0923399 99.9701651 14.9076801 100.457381 15.3948955 101.92897 15.7528497L104.454536 16.3096674C107.238624 16.9360872 108.471577 18.308245 108.10368 20.555402 107.626408 23.3792629 104.663342 25.2982952 100.904823 25.2982952 97.0965883 25.2982952 94.9786926 23.6278422 94.9886358 20.8338108L98.5284051 20.4957429C98.6079505 21.8778439 99.5326655 22.573866 101.103687 22.5838091 102.883515 22.5937523 104.235786 21.7187531 104.394877 20.6250042 104.534081 19.809664 104.036923 19.3125054 102.664765 19.0042671L100.159085 18.4573926C97.3252813 17.8309727 96.1321006 16.3196106 96.5198843 14.0426241 96.9872134 11.268479 99.731529 9.52842385 103.350844 9.52842385 106.990045 9.52842385 108.819589 11.1690473 108.889191 13.7642153zM115.42187 16.0511449L113.95028 25 110.340909 25 113.721587 4.63638306 117.251413 4.63638306 115.978687 12.3224553 116.167608 12.3224553C117.132095 10.5824001 118.812491 9.52842385 121.178966 9.52842385 124.330952 9.52842385 126.08095 11.5767173 125.48436 15.2755775L123.85368 25 120.244308 25 121.775557 15.8323951C122.103681 13.7741584 121.18891 12.5710346 119.319593 12.5710346 117.390618 12.5710346 115.809653 13.8437606 115.42187 16.0511449z"/>
    <polygon fill="#79589F" fill-rule="nonzero" points="77.462 27.115 77.462 2.474 83.808 2.474 83.808 4.764 80.224 4.764 80.224 24.826 83.808 24.826 83.808 27.115" opacity=".4"/>
    <polygon fill="#79589F" fill-rule="nonzero" points="138.538 2.474 138.538 27.115 132.192 27.115 132.192 24.826 135.776 24.826 135.776 4.764 132.192 4.764 132.192 2.474" opacity=".4"/>
    <path fill="#A997BF" d="M151.315281,18.2628114 C150.29881,18.2628114 149.409398,19.1148824 149.409398,20.1799712 C149.409398,21.2024564 150.29881,22.0545274 151.315281,22.0545274 C152.374104,22.0545274 153.221163,21.2024564 153.221163,20.1799712 C153.221163,19.1148824 152.374104,18.2628114 151.315281,18.2628114 Z M150.764692,12.9799711 L149.959986,12.9799711 C149.57881,13.0225746 149.324692,13.3207995 149.282339,13.7042315 L149.282339,15.0675451 L149.324692,15.0675451 C149.367045,15.4083735 149.621163,15.6639948 149.959986,15.7065984 L150.764692,15.7065984 C153.517633,15.7065984 155.762339,17.9645866 155.804692,20.7338174 L155.804692,21.5006813 C155.847045,21.8841132 156.143516,22.1397345 156.524692,22.1823381 L157.879987,22.1823381 L157.879987,22.1397345 C158.21881,22.097131 158.472928,21.8415097 158.515281,21.5006813 L158.515281,20.7338174 C158.472928,16.4734623 154.999986,12.9799711 150.764692,12.9799711 Z M163.68234,20.7338174 C163.639987,13.6190244 157.837634,7.78233788 150.764692,7.78233788 L149.959986,7.78233788 L149.959986,7.82494144 C149.57881,7.86754499 149.324692,8.16576984 149.282339,8.5492018 L149.282339,9.86991188 L149.324692,9.86991188 C149.367045,10.2107403 149.621163,10.5089651 149.959986,10.5515687 L150.764692,10.5515687 C156.355281,10.5515687 160.929398,15.1101486 160.929398,20.7338174 L160.929398,21.5006813 C160.971751,21.8841132 161.310575,22.1397345 161.649398,22.1823381 L163.004692,22.1823381 L163.004692,22.1397345 C163.343516,22.097131 163.597634,21.8415097 163.639987,21.5006813 L163.68234,21.5006813 L163.68234,20.7338174 Z" transform="rotate(45 156.482 14.982)"/>
  </g>
</svg>
