<svg xmlns="http://www.w3.org/2000/svg" width="124" height="124" viewBox="0 0 124 124">
  <defs>
    <linearGradient id="a" x1="50%" x2="50%" y1="88.487%" y2="93.248%">
      <stop offset="0%" stop-color="#FFF"/>
      <stop offset="100%" stop-color="#FFF" stop-opacity="0"/>
    </linearGradient>
  </defs>
  <g fill="none" fill-rule="evenodd" transform="translate(13 9)">
    <path fill="url(#a)" d="M53.0470029,45.029782 C51.6220481,43.1682484 49.567867,42 47.2844382,42 C44.9748737,42 42.8992539,43.1958351 41.4723851,45.0956195 C40.7054321,46.1624661 39.6481656,45.7930083 38.3005855,43.9872461 C36.0138585,40.9230237 32.7173671,39 29.0529854,39 C25.3466619,39 22.0157662,40.9684333 19.7259677,44.0956195 C18.4099433,45.8929189 12.5008524,57.591757 1.99869499,79.192134 C-1.00142379,87.3965174 0.421238528,94.9234629 6.26668194,101.772971 L9.01264854,99.1344883 C21.0572966,105.005951 29.4020814,105.280946 34.0470029,99.9594727 C38.6919244,94.6379992 43.0961547,91.9848416 47.259694,92 C51.1178999,91.9848416 54.188797,93.6617622 56.4723851,97.0307617 C58.7559733,100.399761 68.5368977,101.101003 85.8151585,99.1344883 L88.5062887,101.772971 C94.3517321,94.9234629 95.7743944,87.3965174 92.7742756,79.192134 C82.2721182,57.591757 76.3630273,45.8929189 75.0470029,44.0956195 C72.7572044,40.9684333 69.4263087,39 65.7199852,39 C62.0556035,39 58.759112,40.9230237 56.4723851,43.9872461 C55.0285302,45.7792814 53.8867361,46.1267934 53.0470029,45.029782 Z"/>
    <path fill="#F1ECF3" fill-rule="nonzero" d="M27.2684366 91.0215071L20.2879347 86.6640131 9.13314459 98.8137194C17.923214 106.974765 26.0654029 107.817788 33.5597113 101.342789 41.0540196 94.8677896 42.7660159 87.1918325 38.6956999 78.3149177L27.2684366 91.0215071zM74.4296417 92.7601451L68.1788488 89.448429 57.4723851 99.4988018C66.2624545 107.659848 74.4046434 108.502871 81.8989518 102.027871 89.3932602 95.5528719 91.3794883 87.9324451 87.8576362 79.1665908L74.4296417 92.7601451z"/>
    <path stroke="#7A589E" stroke-linecap="round" stroke-linejoin="round" stroke-width="2" d="M22.7433851 69C12.6507772 69 4.47238511 77.1813057 4.47238511 87.271 4.47238511 97.3577807 12.6507772 105.542 22.7433851 105.542 32.8330794 105.542 41.0143851 97.3577807 41.0143851 87.271 41.0143851 77.1813057 32.8330794 69 22.7433851 69zM47.2433851 66C45.1603451 66 43.4723851 67.6885613 43.4723851 69.771 43.4723851 71.8528373 45.1603451 73.542 47.2433851 73.542 49.3258238 73.542 51.0143851 71.8528373 51.0143851 69.771 51.0143851 67.6885613 49.3258238 66 47.2433851 66zM71.7433851 69C61.6507772 69 53.4723851 77.1813057 53.4723851 87.271 53.4723851 97.3577807 61.6507772 105.542 71.7433851 105.542 81.8330794 105.542 90.0143851 97.3577807 90.0143851 87.271 90.0143851 77.1813057 81.8330794 69 71.7433851 69z"/>
    <path stroke="#CEC2DB" stroke-linecap="round" stroke-width="2" d="M67.1256788 73.7307619C57.1613694 77.6003663 57.4249466 89.5781285 57.4721727 89.705464M18.1362883 74C8.17197892 77.8696044 8.43555608 89.8473666 8.48278218 89.9747021"/>
    <path stroke="#7A589E" stroke-linecap="round" stroke-linejoin="round" stroke-width="2" d="M48.7416662,37.7605009 C46.8801327,39.1854556 45.7118842,41.2396367 45.7118842,43.5230656 C45.7118842,45.83263 46.9077193,47.9082499 48.8075037,49.3351186" transform="rotate(90 47.26 43.548)"/>
    <path stroke="#7A589E" stroke-linecap="round" stroke-linejoin="round" stroke-width="2" d="M48.7416662,85.7605009 C46.8801327,87.6778969 45.7118842,90.4419696 45.7118842,93.5145144 C45.7118842,96.6222268 46.9077193,99.4151472 48.8075037,101.335119" transform="rotate(90 47.26 93.548)"/>
    <path stroke="#7A589E" stroke-linecap="round" stroke-linejoin="round" stroke-width="2" d="M48.7416662,76.7605009 C46.8801327,78.1854556 45.7118842,80.2396367 45.7118842,82.5230656 C45.7118842,84.83263 46.9077193,86.9082499 48.8075037,88.3351186" transform="rotate(90 47.26 82.548)"/>
    <path stroke="#7A589E" stroke-linecap="round" stroke-linejoin="round" stroke-width="2" d="M27.2416662,38.2605009 C25.3801327,40.3010072 24.2118842,43.2425528 24.2118842,46.5123766 C24.2118842,49.819626 25.4077193,52.7918715 27.3075037,54.8351186" transform="rotate(90 25.76 46.548)"/>
    <path stroke="#7A589E" stroke-linecap="round" stroke-linejoin="round" stroke-width="2" d="M70.2416662,38.2605009 C68.3801327,40.3010072 67.2118842,43.2425528 67.2118842,46.5123766 C67.2118842,49.819626 68.4077193,52.7918715 70.3075037,54.8351186" transform="rotate(90 68.76 46.548)"/>
    <path stroke="#7A589E" stroke-linecap="round" stroke-linejoin="round" stroke-width="2" d="M-7.01275393,51.4723851 C-10.0769763,53.759112 -12,57.0556035 -12,60.7199852 C-12,64.4263087 -10.0315667,67.7572044 -6.90438049,70.0470029 C-5.10708113,71.3630273 6.59175703,77.2721182 28.192134,87.7742756 C36.3965174,90.7743944 43.9234629,89.3517321 50.7729706,83.5062887" transform="rotate(90 19.386 70.386)"/>
    <path stroke="#7A589E" stroke-linecap="round" stroke-linejoin="round" stroke-width="2" d="M48.9872461,51.4723851 C45.9230237,53.759112 44,57.0556035 44,60.7199852 C44,64.4263087 45.9684333,67.7572044 49.0956195,70.0470029 C50.8929189,71.3630273 62.591757,77.2721182 84.192134,87.7742756 C92.3965174,90.7743944 99.9234629,89.3517321 106.772971,83.5062887" transform="matrix(0 1 1 0 5 -5)"/>
    <polyline stroke="#7A589E" stroke-linecap="round" stroke-linejoin="round" stroke-width="2" points="9.013 99.312 20.339 86.721 26.985 91.753 38.49 78.177"/>
    <polyline stroke="#7A589E" stroke-linecap="round" stroke-linejoin="round" stroke-width="2" points="58.472 99.134 68.253 89.371 74.505 93.053 81.764 85.688"/>
    <polyline stroke="#7A589E" stroke-linecap="round" stroke-linejoin="round" stroke-width="2" points="78 84.931 83.014 84.1 83.117 89.077"/>
    <path stroke="#CEC2DB" stroke-linecap="round" stroke-width="2" d="M8.47238511,30.7112367 C9.86859619,13.4074626 25.8956373,18.6700865 25.8837279,18.4668105 C25.8211766,17.3991514 24.4209255,2.22039857 39.4882249,0.185171172 C50.6669399,-1.3248026 58.1494849,6.63105872 57.9165174,15.6279827 C57.5828536,28.5136742 47.9296169,29.6786873 44.2818125,29.1603266 C40.7272933,28.6552219 37.9108596,25.2141984 37.6044601,21.7125704 C36.8294727,12.8557767 49.2746832,13.2848279 47.4883927,20.5011675"/>
    <path stroke="#CEC2DB" stroke-linecap="round" stroke-linejoin="round" stroke-width="2" d="M84.986732,10.6435974 C75.0677509,13.3801848 69.2969744,23.3983481 72.0831458,33.0444363 C73.0207453,36.2952609 75.2493591,39.0508587 78.2784592,40.70471 C81.3075594,42.3585613 84.8888723,42.7751119 88.2341345,41.8626769 C90.5935578,41.2422345 92.6010511,39.7334126 93.8120258,37.6703621 C95.0230004,35.6073116 95.3375193,33.160288 94.6859276,30.8712206 C93.7060151,27.5727498 90.1778454,25.6537312 86.7717281,26.5665817 C84.3870924,27.216241 82.9926126,29.6177693 83.6533615,31.9369321" transform="rotate(164 83.2 26.49)"/>
    <path stroke="#CEC2DB" stroke-linecap="round" stroke-width="2" d="M58.4723851,12.5450143 C64.1050077,8.67855701 68.885805,9.21762268 72.814777,14.1622113"/>
    <path stroke="#CEC2DB" stroke-linecap="round" stroke-width="2" d="M14.139594,31.3171669 C7.74898662,29.8715915 3.28267949,31.4389958 0.74067262,36.0193798" transform="rotate(7 7.44 33.408)"/>
  </g>
</svg>
