<?xml version="1.0" encoding="utf-8"?>
<!-- Generator: Adobe Illustrator 19.2.0, SVG Export Plug-In . SVG Version: 6.00 Build 0)  -->
<svg version="1.1" id="Layer_1" xmlns:sketch="http://www.bohemiancoding.com/sketch/ns"
	 xmlns="http://www.w3.org/2000/svg" xmlns:xlink="http://www.w3.org/1999/xlink" x="0px" y="0px" viewBox="0 0 23 23"
	 style="enable-background:new 0 0 23 23;" xml:space="preserve">
<style type="text/css">
	.st0{fill:none;stroke:#876AAA;stroke-width:1.5;stroke-linecap:round;stroke-linejoin:round;stroke-miterlimit:10;}
	.st1{fill:none;stroke:#876AAA;stroke-width:2;stroke-linecap:round;stroke-linejoin:round;stroke-miterlimit:10;}
	.st2{fill:#876AAA;}
	.st3{opacity:0.3357;fill:#876AAA;enable-background:new    ;}
	.st4{fill:none;stroke:#876AAA;stroke-width:2;stroke-linecap:round;stroke-linejoin:round;}
	.st5{fill:none;stroke:#876AAA;stroke-linecap:round;stroke-linejoin:round;}
	.st6{fill:none;stroke:#876AAA;stroke-linecap:round;stroke-linejoin:round;stroke-miterlimit:10;}
	.st7{fill:none;stroke:#876AAA;stroke-linecap:round;stroke-miterlimit:10;}
</style>
<g>
	<g>
		<path class="st1" d="M7.1,5.8L4.7,7.1C4,7.5,3.6,8.3,3.6,9.1v6.5c0,0.8,0.4,1.6,1.1,2l5.6,3.3c0.7,0.4,1.6,0.4,2.3,0l5.6-3.3
			c0.7-0.4,1.1-1.2,1.1-2V9.1c0-0.8-0.4-1.6-1.1-2l-2.5-1.4"/>
	</g>
</g>
<g>
	<polyline class="st6" points="9.2,4.1 11.5,2.8 13.8,4.1 13.8,10.2 16.1,11.6 16.1,15.9 	"/>
	<polyline class="st6" points="9.2,4.1 11.5,5.4 13.8,4.1 	"/>
	<line class="st6" x1="11.5" y1="2.8" x2="11.5" y2="0.9"/>
	<line class="st6" x1="11.5" y1="5.4" x2="11.5" y2="18.3"/>
	<line class="st6" x1="13.8" y1="10.2" x2="13.8" y2="13.6"/>
	<line class="st6" x1="16.1" y1="18.6" x2="16.1" y2="18.5"/>
	<circle class="st6" cx="13.8" cy="14.3" r="0.7"/>
	<polyline class="st6" points="18.4,17.3 18.4,17.2 16.1,15.9 13.8,17.2 13.8,19.9 	"/>
	<polyline class="st6" points="9.2,4.1 9.2,10.2 6.9,11.6 6.9,15.9 	"/>
	<line class="st6" x1="9.2" y1="10.2" x2="9.2" y2="13.6"/>
	<line class="st6" x1="6.9" y1="18.6" x2="6.9" y2="18.5"/>
	<circle class="st6" cx="9.2" cy="14.3" r="0.7"/>
	<polyline class="st6" points="4.6,17.3 4.6,17.2 6.9,15.9 9.2,17.2 9.2,19.9 	"/>
</g>
</svg>
