<svg xmlns="http://www.w3.org/2000/svg" width="124" height="124" viewBox="0 0 124 124">
  <g fill="none" fill-rule="evenodd" stroke-linecap="round" stroke-linejoin="round" stroke-width="2" transform="translate(9 9)">
    <path stroke="#CEC2DB" d="M67.5225806,72.825 C67.5225806,72.67 67.6290323,72.515 67.6870968,72.3696875 C68.5010083,70.286498 70.1087978,68.6126431 72.1563077,67.7168329 C74.2038177,66.8210227 76.5230832,66.7767439 78.6032258,67.59375 C79.5045312,67.9513386 80.3388904,68.4590265 81.0709677,69.0953125 C83.6952111,62.6455759 91.0456845,59.5466168 97.4887097,62.1735938 C103.931735,64.8005707 107.027469,72.1587009 104.403226,78.6084375"/>
    <path stroke="#CEC2DB" d="M102.256076 65.734375C104.412082 68.2904329 105.32684 72.3454858 105.0418 75.6786623 104.756759 79.0118388 103.158624 82.094522 100.6 84.2465625 98.811269 85.7629005 96.4939445 86.5055999 94.1580631 86.3111945 91.8221817 86.1167892 89.6591917 85.0012126 88.1451613 83.21 85.9426669 80.6010479 86.2674754 76.699286 88.8709677 74.49125 90.6952776 72.9505613 93.4204732 73.1757324 94.9677419 74.995 96.0503856 76.2744613 95.8945593 78.1896557 94.6193548 79.276875M73.2612903 67.3515625C68.7978735 68.6202409 66.2010966 73.2646485 67.4548387 77.7365625 67.8767467 79.2436406 68.8795949 80.5211322 70.2426519 81.2878555 71.6057089 82.0545789 73.2172547 82.2476912 74.7225806 81.8246875 75.7842914 81.5370512 76.6876382 80.8375633 77.2325616 79.8811358 77.777485 78.9247082 77.9190145 77.7902712 77.6258065 76.7290625 77.1848581 75.1998957 75.5972261 74.3102412 74.0645161 74.7334375 72.99146 75.0346187 72.3639616 76.1479641 72.6612903 77.223125"/>
    <path stroke="#CEC2DB" d="M59.7032258 73.5671387L59.7032258 76.73875C59.7032258 82.493125 67.1548387 81.8053125 67.1548387 76.19625M42.816129 81.2628125C42.816129 81.098125 42.816129 80.9334375 42.816129 80.76875 42.9024168 78.0447495 41.6690584 75.4467597 39.5047037 73.7934465 37.340349 72.1401334 34.5115401 71.6351037 31.9096774 72.4375 32.1047586 65.4821639 26.6303565 59.6854407 19.6822581 59.4901563 12.7341596 59.2948718 6.94346832 64.7749764 6.7483871 71.7303125 5.91528141 71.1925829 4.95201848 70.8912497 3.96129032 70.8584375 2.74315828 70.8091691 1.58500196 71.1561278.626345115 71.7962988"/>
    <path stroke="#CEC2DB" d="M13.8111979 60.9830729C10.8115912 62.4533466 8.41437296 65.5648322 7.33427619 68.7285419 6.25417942 71.8922516 6.4751137 75.3560557 7.9483871 78.3565625 10.0816062 82.7483492 15.3667856 84.5784057 19.7548387 82.4446875 21.2401864 81.7351107 22.3816909 80.4620804 22.9266003 78.9074709 23.4715097 77.3528615 23.3748647 75.6449401 22.6580645 74.161875 22.155548 73.1235506 21.2598778 72.3289053 20.1697764 71.9542473 19.0796749 71.5795893 17.8852874 71.6559006 16.8516129 72.16625 15.3409929 72.8902709 14.7004109 74.7013668 15.4193548 76.215625M39.7677419 73.929375C41.4917035 75.3511551 42.5806155 77.4004388 42.7947862 79.626137 43.0089569 81.8518352 42.3308308 84.0715088 40.9096774 85.7965625 39.9164792 87.0016788 38.4856816 87.7624215 36.9321119 87.9113998 35.3785423 88.0603781 33.8294914 87.5853855 32.6258065 86.5909375 31.7771636 85.8979063 31.239691 84.894669 31.1325122 83.8035792 31.0253333 82.7124895 31.3573008 81.6236682 32.0548387 80.7784375 33.0719705 79.5533229 34.8847409 79.3761776 36.1193548 80.38125 36.9820041 81.0904367 37.107609 82.3651376 36.4 83.229375"/>
    <path stroke="#CEC2DB" d="M49.3387097,69.2573242 L49.3387097,78.59875 C49.3387097,85.38 42.8064516,83.771875 42.8064516,79.335"/>
    <path fill="#FFF" stroke="#7A589E" d="M63.4482538 51.5806452L63.4482538 54.4112903C63.4482538 55.9662581 62.1663872 57.2419355 60.5982538 57.2419355L48.1418538 57.2419355C46.5737205 57.2419355 45.2918538 55.9662581 45.2918538 54.4112903L45.2918538 51.5806452 63.4482538 51.5806452zM40.8795472 50.0080645L38.1232805 49.2859355C36.6083472 48.8909032 35.6938138 47.3334194 36.0940805 45.8287742L39.2683472 33.8645806C39.6660805 32.3599355 41.2342138 31.4516129 42.7516805 31.8491613L45.5079472 32.5712903 40.8795472 50.0080645zM68.8105605 49.6074968L71.5668272 48.8853677C73.0817605 48.4903355 73.9962938 46.9328516 73.5960272 45.4282065L70.4217605 33.4640129C70.0240272 31.9593677 68.4558938 31.0510452 66.9384272 31.4485935L64.1821605 32.1707226 68.8105605 49.6074968z"/>
    <path stroke="#7A589E" d="M55 61L55 105.556552M60.5 60.8047742L60.5 69.9758301"/>
    <path stroke="#CEC2DB" d="M60.5 87.7100949L60.5 101.9483M66.5 90.8047742L66.5 96.2339301M42.5 94.8047742L42.5 100.23393M49 88.8047742L49 97"/>
    <path stroke="#7A589E" d="M49.5,61 L49.5,66.3392258"/>
    <path fill="#FFF" stroke="#7A589E" d="M68.9367205,53.4677419 L40.7533872,53.4677419 C40.7533872,53.4677419 41.5969872,0 54.8463205,0 C68.0931205,0 68.9367205,53.4677419 68.9367205,53.4677419 Z"/>
    <path fill="#F1ECF3" stroke="#7A589E" d="M54.1948385,30.0265942 C54.693495,29.7352203 55.3071299,29.7352203 55.8057864,30.0265942 L59.1951509,32.0104703 C59.6931825,32.3024777 60,32.8408859 60,33.4242671 L60,37.3920195 C60,37.9747673 59.6931825,38.513809 59.1951509,38.8058163 L55.8057864,40.789059 C55.3071299,41.0810663 54.693495,41.0810663 54.1948385,40.789059 L50.805474,38.8058163 C50.3068175,38.513809 50,37.9747673 50,37.3920195 L50,33.4242671 C50,32.8408859 50.3068175,32.3024777 50.805474,32.0104703 L54.1948385,30.0265942 Z"/>
  </g>
</svg>
