<svg xmlns="http://www.w3.org/2000/svg" width="124" height="124" viewBox="0 0 124 124">
  <g fill="none" fill-rule="evenodd" transform="translate(22 15)">
    <path stroke="#F1ECF3" stroke-linecap="round" stroke-linejoin="round" stroke-width="2" d="M80.6654438,91 C80.6654438,60.232494 80.6654438,39.9393763 80.6654438,25.6177579 C80.6654438,7.04468207 66.7569242,2.58791787 60,2"/>
    <path stroke="#F1ECF3" stroke-linecap="round" stroke-linejoin="round" stroke-width="2" d="M20.6654438,89.6165474 C20.6654438,58.8490414 20.6654438,38.9393763 20.6654438,24.6177579 C20.6654438,6.04468207 6.75692416,2.58791787 1.95399252e-14,2" transform="matrix(-1 0 0 1 20.665 0)"/>
    <path stroke="#CEC2DB" stroke-linecap="round" stroke-linejoin="round" stroke-width="2" d="M30.98184,2.5 L25,2.5" transform="matrix(-1 0 0 1 55.982 0)"/>
    <circle cx="40.5" cy="6.5" r="6.5" stroke="#7A589E" stroke-width="2"/>
    <path fill="#FFF" fill-rule="nonzero" stroke="#7A589E" stroke-width="2" d="M23,6 C12.5065898,6 4,14.5065898 4,25 L4,91 C4,92.6568542 5.34314575,94 7,94 L74,94 C75.6568542,94 77,92.6568542 77,91 L77,25 C77,14.5065898 68.4934102,6 58,6 L23,6 Z"/>
    <circle cx="34.5" cy="10.5" r="1.5" fill="#CEC2DB" fill-rule="nonzero"/>
    <circle cx="46.5" cy="10.5" r="1.5" fill="#CEC2DB" fill-rule="nonzero"/>
    <circle cx="40.5" cy="10.46" r="1.5" fill="#CEC2DB" fill-rule="nonzero"/>
    <path fill="#FFF" fill-rule="nonzero" stroke="#7A589E" stroke-width="2" d="M15,52 C12.790861,52 11,53.790861 11,56 L11,84.359375 C11,86.0162292 12.3431458,87.359375 14,87.359375 L67,87.359375 C68.6568542,87.359375 70,86.0162292 70,84.359375 L70,56 C70,53.790861 68.209139,52 66,52 L15,52 Z"/>
    <path stroke="#CEC2DB" stroke-linecap="round" stroke-linejoin="round" stroke-width="2" d="M15.5936508,60.4547615 L58.3935268,60.4547615"/>
    <path fill="#F1ECF3" stroke="#7A589E" stroke-linecap="round" stroke-linejoin="round" stroke-width="2" d="M38.7117415,23.3309175 C39.509592,22.8896942 40.4914079,22.8896942 41.2892583,23.3309175 L46.7122415,26.3350727 C47.509092,26.7772552 48,27.5925592 48,28.475965 L48,34.4842754 C48,35.3667221 47.509092,36.1829852 46.7122415,36.6251677 L41.2892583,39.6283637 C40.4914079,40.0705462 39.509592,40.0705462 38.7117415,39.6283637 L33.2887584,36.6251677 C32.490908,36.1829852 32,35.3667221 32,34.4842754 L32,28.475965 C32,27.5925592 32.490908,26.7772552 33.2887584,26.3350727 L38.7117415,23.3309175 Z"/>
    <path stroke="#CEC2DB" stroke-linecap="round" stroke-linejoin="round" stroke-width="2" d="M62,62.2293519 L62,56.9042553"/>
    <path fill="#FFF" stroke="#CEC2DB" stroke-linecap="round" stroke-linejoin="round" stroke-width="2" d="M62,63 C60.895232,63 60,63.8955509 60,65 C60,66.1041301 60.895232,67 62,67 C63.1044491,67 64,66.1041301 64,65 C64,63.8955509 63.1044491,63 62,63 Z"/>
    <path stroke="#7A589E" stroke-linecap="round" stroke-linejoin="round" stroke-width="2" d="M15.6071429,56.2373229 L65.8541434,56.2373229"/>
    <path stroke="#CEC2DB" stroke-linecap="round" stroke-linejoin="round" stroke-width="2" d="M55.6738281,2 C54.8509,2 52.959624,2 50,2"/>
  </g>
</svg>
