<svg xmlns="http://www.w3.org/2000/svg" width="124" height="124" viewBox="0 0 124 124">
  <g fill="none" fill-rule="evenodd" transform="translate(20 25)">
    <path fill="#FEFEFE" d="M51.1578,35.5423 L43.9318,35.5423 C42.2278,35.5423 40.9158,34.0373 41.1478,32.3503 L43.0898,15.3733 C44.7618,3.2173 56.0088,-3.2777 66.1668,3.6043 C66.4818,3.8173 66.8008,4.0423 67.1198,4.2773 L68.7558,3.8983 C71.5738,3.5373 75.0468,8.4513 75.4798,10.1083 C76.6458,14.5663 78.3838,29.2233 78.8688,33.2673 C79.0298,34.6053 77.4608,35.5423 76.1138,35.5423 L68.5208,35.5423 L51.1578,35.5423 Z"/>
    <path stroke="#CDC1D9" stroke-linecap="round" stroke-linejoin="round" stroke-width="1.6" d="M51.1578,35.5423 L43.9318,35.5423 C42.2278,35.5423 40.9158,34.0373 41.1478,32.3503 L43.0898,15.3733 C44.7618,3.2173 56.0088,-3.2777 66.1668,3.6043 C66.4818,3.8173 66.8008,4.0423 67.1198,4.2773 L68.7558,3.8983 C71.5738,3.5373 75.0468,8.4513 75.4798,10.1083 C76.6458,14.5663 78.3838,29.2233 78.8688,33.2673 C79.0298,34.6053 77.4608,35.5423 76.1138,35.5423 L68.5208,35.5423 L51.1578,35.5423 Z"/>
    <path fill="#FEFEFE" d="M71.5094,22.1644 C71.5094,27.5014 68.5684,32.8994 66.3924,36.1614 C65.2804,37.8304 65.8944,40.1004 67.7004,40.9534 L81.5194,47.4884 C84.1864,48.9184 83.1774,52.9894 80.1554,52.9894 L40.1044,52.9894 C37.0814,52.9894 36.0724,48.9184 38.7404,47.4884 L52.5584,40.9534 C54.3634,40.1004 54.9784,37.8304 53.8664,36.1614 C51.6914,32.8994 48.7494,27.5014 48.7494,22.1644 C48.7494,6.6484 60.1294,7.1574 60.1294,7.1574 L71.5094,22.1644 Z"/>
    <path stroke="#CDC1D9" stroke-linecap="round" stroke-linejoin="round" stroke-width="1.6" d="M71.5094,22.1644 C71.5094,27.5014 68.5684,32.8994 66.3924,36.1614 C65.2804,37.8304 65.8944,40.1004 67.7004,40.9534 L81.5194,47.4884 C84.1864,48.9184 83.1774,52.9894 80.1554,52.9894 L40.1044,52.9894 C37.0814,52.9894 36.0724,48.9184 38.7404,47.4884 L52.5584,40.9534 C54.3634,40.1004 54.9784,37.8304 53.8664,36.1614 C51.6914,32.8994 48.7494,27.5014 48.7494,22.1644 C48.7494,6.6484 60.1294,7.1574 60.1294,7.1574 L71.5094,22.1644 Z"/>
    <path fill="#FEFEFE" d="M43.7574,52.9896 C46.7794,52.9896 47.7884,48.9186 45.1214,47.4886 L31.3034,40.9536 C29.4964,40.0996 28.8824,37.8306 29.9944,36.1616 C32.1704,32.8996 35.1114,27.5016 35.1114,22.1646 C35.1114,6.6486 23.7324,7.1576 23.7324,7.1576 C23.7324,7.1576 12.3524,6.6486 12.3524,22.1646 C12.3524,27.5016 15.2934,32.8996 17.4694,36.1616 C18.5804,37.8306 17.9674,40.0996 16.1604,40.9536 L2.3434,47.4886 C-0.3246,48.9186 0.6844,52.9896 3.7064,52.9896 L43.7574,52.9896 Z"/>
    <path stroke="#CDC1D9" stroke-linecap="round" stroke-linejoin="round" stroke-width="1.6" d="M43.7574,52.9896 C46.7794,52.9896 47.7884,48.9186 45.1214,47.4886 L31.3034,40.9536 C29.4964,40.0996 28.8824,37.8306 29.9944,36.1616 C32.1704,32.8996 35.1114,27.5016 35.1114,22.1646 C35.1114,6.6486 23.7324,7.1576 23.7324,7.1576 C23.7324,7.1576 12.3524,6.6486 12.3524,22.1646 C12.3524,27.5016 15.2934,32.8996 17.4694,36.1616 C18.5804,37.8306 17.9674,40.0996 16.1604,40.9536 L2.3434,47.4886 C-0.3246,48.9186 0.6844,52.9896 3.7064,52.9896 L43.7574,52.9896 Z"/>
    <path fill="#FEFEFE" d="M36.2555,18.2269 C36.2555,18.2269 35.9575,17.4489 30.4095,17.7689 C30.4095,17.7689 26.7375,17.7229 24.6795,19.5989 C24.6795,19.5989 25.5945,24.5869 28.3395,25.3649 C30.0095,25.8379 31.4755,25.5999 32.3685,25.3409 C33.0695,25.1379 33.6975,24.7259 34.1485,24.1509 C34.6215,23.5469 35.1495,22.5999 35.3445,21.2399 C35.3835,20.9649 35.4655,20.6989 35.5985,20.4559 C35.7435,20.1909 35.9625,19.8319 36.2555,19.4619 L36.2555,18.2269 Z"/>
    <path stroke="#CDC1D9" stroke-linecap="round" stroke-linejoin="round" stroke-width="1.6" d="M36.2555,18.2269 C36.2555,18.2269 35.9575,17.4489 30.4095,17.7689 C30.4095,17.7689 26.7375,17.7229 24.6795,19.5989 C24.6795,19.5989 25.5945,24.5869 28.3395,25.3649 C30.0095,25.8379 31.4755,25.5999 32.3685,25.3409 C33.0695,25.1379 33.6975,24.7259 34.1485,24.1509 C34.6215,23.5469 35.1495,22.5999 35.3445,21.2399 C35.3835,20.9649 35.4655,20.6989 35.5985,20.4559 C35.7435,20.1909 35.9625,19.8319 36.2555,19.4619 L36.2555,18.2269 Z"/>
    <path fill="#FEFEFE" d="M11.2086,18.2269 C11.2086,18.2269 11.5066,17.4489 17.0546,17.7689 C17.0546,17.7689 20.7266,17.7229 22.7846,19.5989 C22.7846,19.5989 21.8696,24.5869 19.1246,25.3649 C17.4546,25.8379 15.9886,25.5999 15.0956,25.3409 C14.3946,25.1379 13.7666,24.7259 13.3156,24.1509 C12.8436,23.5469 12.3146,22.5999 12.1206,21.2399 C12.0806,20.9649 11.9986,20.6989 11.8656,20.4559 C11.7206,20.1909 11.5016,19.8319 11.2086,19.4619 L11.2086,18.2269 Z"/>
    <path stroke="#CDC1D9" stroke-linecap="round" stroke-linejoin="round" stroke-width="1.6" d="M11.2086,18.2269 C11.2086,18.2269 11.5066,17.4489 17.0546,17.7689 C17.0546,17.7689 20.7266,17.7229 22.7846,19.5989 C22.7846,19.5989 21.8696,24.5869 19.1246,25.3649 C17.4546,25.8379 15.9886,25.5999 15.0956,25.3409 C14.3946,25.1379 13.7666,24.7259 13.3156,24.1509 C12.8436,23.5469 12.3146,22.5999 12.1206,21.2399 C12.0806,20.9649 11.9986,20.6989 11.8656,20.4559 C11.7206,20.1909 11.5016,19.8319 11.2086,19.4619 L11.2086,18.2269 Z"/>
    <g transform="translate(22 19.092)">
      <path fill="#FEFEFE" d="M0.7848,0.5069 L2.6798,0.5069"/>
      <path stroke="#CDC1D9" stroke-linecap="round" stroke-linejoin="round" stroke-width="1.6" d="M0.7848,0.5069 L2.6798,0.5069"/>
    </g>
    <g transform="translate(22 19.092)">
      <path fill="#FEFEFE" d="M0.7848,1.3848 L2.6798,1.3848"/>
      <path stroke="#CDC1D9" stroke-linecap="round" stroke-linejoin="round" stroke-width="1.6" d="M0.7848,1.3848 L2.6798,1.3848"/>
    </g>
    <path fill="#FEFEFE" d="M58.0289,29.4202 C58.0289,37.7232 50.9529,44.4542 42.2229,44.4542 C33.4949,44.4542 26.4179,37.7232 26.4179,29.4202 C26.4179,21.1162 33.4949,14.3852 42.2229,14.3852 C43.6729,14.3852 45.0749,14.5702 46.4079,14.9182 C47.0499,15.0852 48.2829,17.5292 48.2829,17.5292 C48.2829,17.5292 49.3519,15.9862 49.8619,16.2542 C54.7319,18.8162 58.0289,23.7512 58.0289,29.4202"/>
    <path stroke="#7A599E" stroke-linecap="round" stroke-linejoin="round" stroke-width="1.6" d="M58.0289,29.4202 C58.0289,37.7232 50.9529,44.4542 42.2229,44.4542 C33.4949,44.4542 26.4179,37.7232 26.4179,29.4202 C26.4179,21.1162 33.4949,14.3852 42.2229,14.3852 C43.6729,14.3852 45.0749,14.5702 46.4079,14.9182 C47.0499,15.0852 48.2829,17.5292 48.2829,17.5292 C48.2829,17.5292 49.3519,15.9862 49.8619,16.2542 C54.7319,18.8162 58.0289,23.7512 58.0289,29.4202 Z"/>
    <path fill="#F0EAF1" d="M53.651,30.0726 C54.864,32.5026 55.11,33.7656 55.11,38.1776 C55.11,44.2586 51.758,50.4076 49.281,54.1236 C48.013,56.0236 48.714,58.6096 50.77,59.5826 L66.512,67.0256 C69.55,68.6546 68.401,73.2926 64.959,73.2926 L19.335,73.2926 C15.892,73.2926 14.743,68.6546 17.782,67.0256 L33.521,59.5826 C35.58,58.6096 36.279,56.0236 35.012,54.1236 C32.534,50.4076 29.183,44.2586 29.183,38.1776 C29.183,34.5386 29.741,33.6766 30.614,31.4206 L45.09,23.4736 L53.651,30.0726 Z"/>
    <path stroke="#7A599E" stroke-linecap="round" stroke-linejoin="round" stroke-width="1.6" d="M30.606,29.4163 C29.733,31.6733 29.183,34.5383 29.183,38.1783 C29.183,44.2583 32.534,50.4073 35.012,54.1233 C36.279,56.0233 35.58,58.6093 33.521,59.5823 L17.782,67.0253 C14.743,68.6543 15.892,73.2923 19.335,73.2923 L64.959,73.2923 C68.401,73.2923 69.55,68.6543 66.512,67.0253 L50.77,59.5823 C48.713,58.6093 48.013,56.0233 49.281,54.1233 C51.758,50.4073 55.11,44.2583 55.11,38.1783 C55.11,33.7663 54.301,30.4913 53.089,28.0613"/>
    <polyline stroke="#7A599E" stroke-linecap="round" stroke-linejoin="round" stroke-width="1.6" points="30.614 31.42 45.091 23.474 53.09 30.061"/>
  </g>
</svg>
